<mxfile host="app.diagrams.net" modified="2024-02-14T15:49:27.930Z" agent="Mozilla/5.0 (X11; Linux x86_64) AppleWebKit/537.36 (KHTML, like Gecko) Chrome/121.0.0.0 Safari/537.36" etag="hJ9zg8_RdJ8KgkQOZ71t" version="23.1.3" type="github">
  <diagram name="Page-1" id="929967ad-93f9-6ef4-fab6-5d389245f69c">
    <mxGraphModel dx="819" dy="447" grid="1" gridSize="10" guides="1" tooltips="1" connect="1" arrows="1" fold="1" page="1" pageScale="1.5" pageWidth="1169" pageHeight="826" background="none" math="0" shadow="0">
      <root>
        <mxCell id="0" style=";html=1;" />
        <mxCell id="1" style=";html=1;" parent="0" />
        <mxCell id="E4p7y--Rclgz1ynE0BcM-12" style="edgeStyle=orthogonalEdgeStyle;rounded=0;orthogonalLoop=1;jettySize=auto;html=1;dashed=1;startArrow=classic;startFill=1;endArrow=none;endFill=0;" parent="1" source="E4p7y--Rclgz1ynE0BcM-6" target="E4p7y--Rclgz1ynE0BcM-7" edge="1">
          <mxGeometry relative="1" as="geometry" />
        </mxCell>
        <mxCell id="E4p7y--Rclgz1ynE0BcM-97" style="edgeStyle=orthogonalEdgeStyle;rounded=0;orthogonalLoop=1;jettySize=auto;html=1;" parent="1" source="E4p7y--Rclgz1ynE0BcM-6" target="E4p7y--Rclgz1ynE0BcM-93" edge="1">
          <mxGeometry relative="1" as="geometry" />
        </mxCell>
        <mxCell id="E4p7y--Rclgz1ynE0BcM-6" value="«interface»&lt;br&gt;&lt;b&gt;IComponent&lt;/b&gt;" style="html=1;whiteSpace=wrap;" parent="1" vertex="1">
          <mxGeometry x="825" y="350" width="110" height="40" as="geometry" />
        </mxCell>
        <mxCell id="E4p7y--Rclgz1ynE0BcM-17" value="" style="edgeStyle=orthogonalEdgeStyle;rounded=0;orthogonalLoop=1;jettySize=auto;html=1;entryX=0.011;entryY=0.139;entryDx=0;entryDy=0;entryPerimeter=0;startArrow=classic;startFill=1;endArrow=none;endFill=0;dashed=1;" parent="1" source="E4p7y--Rclgz1ynE0BcM-7" target="E4p7y--Rclgz1ynE0BcM-18" edge="1">
          <mxGeometry relative="1" as="geometry">
            <mxPoint x="1130" y="450" as="targetPoint" />
          </mxGeometry>
        </mxCell>
        <mxCell id="E4p7y--Rclgz1ynE0BcM-7" value="&lt;i&gt;AComponent&lt;/i&gt;" style="swimlane;fontStyle=1;align=center;verticalAlign=top;childLayout=stackLayout;horizontal=1;startSize=26;horizontalStack=0;resizeParent=1;resizeParentMax=0;resizeLast=0;collapsible=1;marginBottom=0;whiteSpace=wrap;html=1;" parent="1" vertex="1">
          <mxGeometry x="695" y="460" width="370" height="100" as="geometry">
            <mxRectangle x="695" y="460" width="120" height="30" as="alternateBounds" />
          </mxGeometry>
        </mxCell>
        <mxCell id="E4p7y--Rclgz1ynE0BcM-8" value="&lt;font style=&quot;font-size: 10px;&quot;&gt;# _links:&amp;nbsp;std::map&amp;lt;std::size_t, std::pair&amp;lt;nts::IComponent *, std::size_t&amp;gt;&amp;gt;&lt;/font&gt;" style="text;strokeColor=none;fillColor=none;align=left;verticalAlign=top;spacingLeft=4;spacingRight=4;overflow=hidden;rotatable=0;points=[[0,0.5],[1,0.5]];portConstraint=eastwest;whiteSpace=wrap;html=1;" parent="E4p7y--Rclgz1ynE0BcM-7" vertex="1">
          <mxGeometry y="26" width="370" height="24" as="geometry" />
        </mxCell>
        <mxCell id="E4p7y--Rclgz1ynE0BcM-9" value="" style="line;strokeWidth=1;fillColor=none;align=left;verticalAlign=middle;spacingTop=-1;spacingLeft=3;spacingRight=3;rotatable=0;labelPosition=right;points=[];portConstraint=eastwest;strokeColor=inherit;" parent="E4p7y--Rclgz1ynE0BcM-7" vertex="1">
          <mxGeometry y="50" width="370" height="10" as="geometry" />
        </mxCell>
        <mxCell id="E4p7y--Rclgz1ynE0BcM-10" value="&lt;font style=&quot;font-size: 10px;&quot;&gt;+ setLink(std::size_t pin, nts::IComponent &amp;amp;other, std::size_t otherPin&amp;nbsp;): void&lt;br&gt;+ getLink(std:size_t pin) const: IComponent *&lt;br&gt;&lt;br&gt;&lt;/font&gt;" style="text;strokeColor=none;fillColor=none;align=left;verticalAlign=top;spacingLeft=4;spacingRight=4;overflow=hidden;rotatable=0;points=[[0,0.5],[1,0.5]];portConstraint=eastwest;whiteSpace=wrap;html=1;" parent="E4p7y--Rclgz1ynE0BcM-7" vertex="1">
          <mxGeometry y="60" width="370" height="40" as="geometry" />
        </mxCell>
        <mxCell id="E4p7y--Rclgz1ynE0BcM-18" value="&amp;lt;&amp;lt;Enum&amp;gt;&amp;gt;&lt;br&gt;tristate" style="swimlane;fontStyle=0;childLayout=stackLayout;horizontal=1;startSize=30;fillColor=none;horizontalStack=0;resizeParent=1;resizeParentMax=0;resizeLast=0;collapsible=1;marginBottom=0;whiteSpace=wrap;html=1;" parent="1" vertex="1">
          <mxGeometry x="484" y="400" width="140" height="108" as="geometry">
            <mxRectangle x="1160" y="390" width="100" height="40" as="alternateBounds" />
          </mxGeometry>
        </mxCell>
        <mxCell id="E4p7y--Rclgz1ynE0BcM-19" value="+ UNDEFINED: (-True)" style="text;strokeColor=none;fillColor=none;align=left;verticalAlign=top;spacingLeft=4;spacingRight=4;overflow=hidden;rotatable=0;points=[[0,0.5],[1,0.5]];portConstraint=eastwest;whiteSpace=wrap;html=1;" parent="E4p7y--Rclgz1ynE0BcM-18" vertex="1">
          <mxGeometry y="30" width="140" height="26" as="geometry" />
        </mxCell>
        <mxCell id="E4p7y--Rclgz1ynE0BcM-20" value="+ FALSE: False" style="text;strokeColor=none;fillColor=none;align=left;verticalAlign=top;spacingLeft=4;spacingRight=4;overflow=hidden;rotatable=0;points=[[0,0.5],[1,0.5]];portConstraint=eastwest;whiteSpace=wrap;html=1;" parent="E4p7y--Rclgz1ynE0BcM-18" vertex="1">
          <mxGeometry y="56" width="140" height="26" as="geometry" />
        </mxCell>
        <mxCell id="E4p7y--Rclgz1ynE0BcM-21" value="+ TRUE: True" style="text;strokeColor=none;fillColor=none;align=left;verticalAlign=top;spacingLeft=4;spacingRight=4;overflow=hidden;rotatable=0;points=[[0,0.5],[1,0.5]];portConstraint=eastwest;whiteSpace=wrap;html=1;" parent="E4p7y--Rclgz1ynE0BcM-18" vertex="1">
          <mxGeometry y="82" width="140" height="26" as="geometry" />
        </mxCell>
        <mxCell id="E4p7y--Rclgz1ynE0BcM-26" style="edgeStyle=orthogonalEdgeStyle;rounded=0;orthogonalLoop=1;jettySize=auto;html=1;entryX=0.495;entryY=0.996;entryDx=0;entryDy=0;entryPerimeter=0;" parent="1" source="E4p7y--Rclgz1ynE0BcM-22" target="E4p7y--Rclgz1ynE0BcM-10" edge="1">
          <mxGeometry relative="1" as="geometry">
            <mxPoint x="880" y="650" as="targetPoint" />
          </mxGeometry>
        </mxCell>
        <mxCell id="E4p7y--Rclgz1ynE0BcM-22" value="simpleComponent" style="swimlane;fontStyle=1;align=center;verticalAlign=top;childLayout=stackLayout;horizontal=1;startSize=26;horizontalStack=0;resizeParent=1;resizeParentMax=0;resizeLast=0;collapsible=1;marginBottom=0;whiteSpace=wrap;html=1;" parent="1" vertex="1">
          <mxGeometry x="479" y="620" width="190" height="52" as="geometry" />
        </mxCell>
        <mxCell id="E4p7y--Rclgz1ynE0BcM-25" value="&lt;font style=&quot;font-size: 10px;&quot;&gt;+ compute(std::size_t pin):&amp;nbsp;nts::Tristate&lt;/font&gt;" style="text;strokeColor=none;fillColor=none;align=left;verticalAlign=top;spacingLeft=4;spacingRight=4;overflow=hidden;rotatable=0;points=[[0,0.5],[1,0.5]];portConstraint=eastwest;whiteSpace=wrap;html=1;" parent="E4p7y--Rclgz1ynE0BcM-22" vertex="1">
          <mxGeometry y="26" width="190" height="26" as="geometry" />
        </mxCell>
        <mxCell id="E4p7y--Rclgz1ynE0BcM-31" style="edgeStyle=orthogonalEdgeStyle;rounded=0;orthogonalLoop=1;jettySize=auto;html=1;entryX=0;entryY=0.5;entryDx=0;entryDy=0;" parent="1" source="E4p7y--Rclgz1ynE0BcM-27" target="E4p7y--Rclgz1ynE0BcM-22" edge="1">
          <mxGeometry relative="1" as="geometry" />
        </mxCell>
        <mxCell id="E4p7y--Rclgz1ynE0BcM-27" value="ANDComponent" style="swimlane;fontStyle=0;childLayout=stackLayout;horizontal=1;startSize=26;fillColor=none;horizontalStack=0;resizeParent=1;resizeParentMax=0;resizeLast=0;collapsible=1;marginBottom=0;whiteSpace=wrap;html=1;" parent="1" vertex="1">
          <mxGeometry x="120" y="330" width="280" height="104" as="geometry" />
        </mxCell>
        <mxCell id="E4p7y--Rclgz1ynE0BcM-28" value="&lt;font style=&quot;font-size: 10px;&quot;&gt;+ ANDComponent()&lt;/font&gt;" style="text;strokeColor=none;fillColor=none;align=left;verticalAlign=top;spacingLeft=4;spacingRight=4;overflow=hidden;rotatable=0;points=[[0,0.5],[1,0.5]];portConstraint=eastwest;whiteSpace=wrap;html=1;" parent="E4p7y--Rclgz1ynE0BcM-27" vertex="1">
          <mxGeometry y="26" width="280" height="26" as="geometry" />
        </mxCell>
        <mxCell id="E4p7y--Rclgz1ynE0BcM-29" value="&lt;font style=&quot;font-size: 10px;&quot;&gt;+ ~ANDComponent()&lt;/font&gt;" style="text;strokeColor=none;fillColor=none;align=left;verticalAlign=top;spacingLeft=4;spacingRight=4;overflow=hidden;rotatable=0;points=[[0,0.5],[1,0.5]];portConstraint=eastwest;whiteSpace=wrap;html=1;" parent="E4p7y--Rclgz1ynE0BcM-27" vertex="1">
          <mxGeometry y="52" width="280" height="26" as="geometry" />
        </mxCell>
        <mxCell id="E4p7y--Rclgz1ynE0BcM-30" value="+ apply(nts::tristate inputA, nts::tristate intputB) : nts::tristate" style="text;strokeColor=none;fillColor=none;align=left;verticalAlign=top;spacingLeft=4;spacingRight=4;overflow=hidden;rotatable=0;points=[[0,0.5],[1,0.5]];portConstraint=eastwest;whiteSpace=wrap;html=1;fontSize=10;" parent="E4p7y--Rclgz1ynE0BcM-27" vertex="1">
          <mxGeometry y="78" width="280" height="26" as="geometry" />
        </mxCell>
        <mxCell id="E4p7y--Rclgz1ynE0BcM-37" style="edgeStyle=orthogonalEdgeStyle;rounded=0;orthogonalLoop=1;jettySize=auto;html=1;entryX=0;entryY=0.5;entryDx=0;entryDy=0;" parent="1" source="E4p7y--Rclgz1ynE0BcM-32" target="E4p7y--Rclgz1ynE0BcM-22" edge="1">
          <mxGeometry relative="1" as="geometry" />
        </mxCell>
        <mxCell id="E4p7y--Rclgz1ynE0BcM-32" value="NANDComponent" style="swimlane;fontStyle=0;childLayout=stackLayout;horizontal=1;startSize=26;fillColor=none;horizontalStack=0;resizeParent=1;resizeParentMax=0;resizeLast=0;collapsible=1;marginBottom=0;whiteSpace=wrap;html=1;" parent="1" vertex="1">
          <mxGeometry x="120" y="446" width="280" height="104" as="geometry" />
        </mxCell>
        <mxCell id="E4p7y--Rclgz1ynE0BcM-33" value="&lt;font style=&quot;font-size: 10px;&quot;&gt;+ NANDComponent()&lt;/font&gt;" style="text;strokeColor=none;fillColor=none;align=left;verticalAlign=top;spacingLeft=4;spacingRight=4;overflow=hidden;rotatable=0;points=[[0,0.5],[1,0.5]];portConstraint=eastwest;whiteSpace=wrap;html=1;" parent="E4p7y--Rclgz1ynE0BcM-32" vertex="1">
          <mxGeometry y="26" width="280" height="26" as="geometry" />
        </mxCell>
        <mxCell id="E4p7y--Rclgz1ynE0BcM-34" value="&lt;font style=&quot;font-size: 10px;&quot;&gt;+ ~NANDComponent()&lt;/font&gt;" style="text;strokeColor=none;fillColor=none;align=left;verticalAlign=top;spacingLeft=4;spacingRight=4;overflow=hidden;rotatable=0;points=[[0,0.5],[1,0.5]];portConstraint=eastwest;whiteSpace=wrap;html=1;" parent="E4p7y--Rclgz1ynE0BcM-32" vertex="1">
          <mxGeometry y="52" width="280" height="26" as="geometry" />
        </mxCell>
        <mxCell id="E4p7y--Rclgz1ynE0BcM-35" value="+ apply(nts::tristate inputA, nts::tristate intputB) : nts::tristate" style="text;strokeColor=none;fillColor=none;align=left;verticalAlign=top;spacingLeft=4;spacingRight=4;overflow=hidden;rotatable=0;points=[[0,0.5],[1,0.5]];portConstraint=eastwest;whiteSpace=wrap;html=1;fontSize=10;" parent="E4p7y--Rclgz1ynE0BcM-32" vertex="1">
          <mxGeometry y="78" width="280" height="26" as="geometry" />
        </mxCell>
        <mxCell id="E4p7y--Rclgz1ynE0BcM-42" style="edgeStyle=orthogonalEdgeStyle;rounded=0;orthogonalLoop=1;jettySize=auto;html=1;entryX=0;entryY=0.5;entryDx=0;entryDy=0;" parent="1" source="E4p7y--Rclgz1ynE0BcM-38" target="E4p7y--Rclgz1ynE0BcM-22" edge="1">
          <mxGeometry relative="1" as="geometry" />
        </mxCell>
        <mxCell id="E4p7y--Rclgz1ynE0BcM-38" value="ORComponent" style="swimlane;fontStyle=0;childLayout=stackLayout;horizontal=1;startSize=26;fillColor=none;horizontalStack=0;resizeParent=1;resizeParentMax=0;resizeLast=0;collapsible=1;marginBottom=0;whiteSpace=wrap;html=1;" parent="1" vertex="1">
          <mxGeometry x="120" y="556" width="280" height="104" as="geometry" />
        </mxCell>
        <mxCell id="E4p7y--Rclgz1ynE0BcM-39" value="&lt;font style=&quot;font-size: 10px;&quot;&gt;+ ORComponent()&lt;/font&gt;" style="text;strokeColor=none;fillColor=none;align=left;verticalAlign=top;spacingLeft=4;spacingRight=4;overflow=hidden;rotatable=0;points=[[0,0.5],[1,0.5]];portConstraint=eastwest;whiteSpace=wrap;html=1;" parent="E4p7y--Rclgz1ynE0BcM-38" vertex="1">
          <mxGeometry y="26" width="280" height="26" as="geometry" />
        </mxCell>
        <mxCell id="E4p7y--Rclgz1ynE0BcM-40" value="&lt;font style=&quot;font-size: 10px;&quot;&gt;+ ~ORComponent()&lt;/font&gt;" style="text;strokeColor=none;fillColor=none;align=left;verticalAlign=top;spacingLeft=4;spacingRight=4;overflow=hidden;rotatable=0;points=[[0,0.5],[1,0.5]];portConstraint=eastwest;whiteSpace=wrap;html=1;" parent="E4p7y--Rclgz1ynE0BcM-38" vertex="1">
          <mxGeometry y="52" width="280" height="26" as="geometry" />
        </mxCell>
        <mxCell id="E4p7y--Rclgz1ynE0BcM-41" value="+ apply(nts::tristate inputA, nts::tristate intputB) : nts::tristate" style="text;strokeColor=none;fillColor=none;align=left;verticalAlign=top;spacingLeft=4;spacingRight=4;overflow=hidden;rotatable=0;points=[[0,0.5],[1,0.5]];portConstraint=eastwest;whiteSpace=wrap;html=1;fontSize=10;" parent="E4p7y--Rclgz1ynE0BcM-38" vertex="1">
          <mxGeometry y="78" width="280" height="26" as="geometry" />
        </mxCell>
        <mxCell id="E4p7y--Rclgz1ynE0BcM-47" style="edgeStyle=orthogonalEdgeStyle;rounded=0;orthogonalLoop=1;jettySize=auto;html=1;endArrow=none;endFill=0;" parent="1" source="E4p7y--Rclgz1ynE0BcM-43" edge="1">
          <mxGeometry relative="1" as="geometry">
            <mxPoint x="440" y="606" as="targetPoint" />
          </mxGeometry>
        </mxCell>
        <mxCell id="E4p7y--Rclgz1ynE0BcM-43" value="XORComponent" style="swimlane;fontStyle=0;childLayout=stackLayout;horizontal=1;startSize=26;fillColor=none;horizontalStack=0;resizeParent=1;resizeParentMax=0;resizeLast=0;collapsible=1;marginBottom=0;whiteSpace=wrap;html=1;" parent="1" vertex="1">
          <mxGeometry x="120" y="666" width="280" height="104" as="geometry" />
        </mxCell>
        <mxCell id="E4p7y--Rclgz1ynE0BcM-44" value="&lt;font style=&quot;font-size: 10px;&quot;&gt;+ XORComponent()&lt;/font&gt;" style="text;strokeColor=none;fillColor=none;align=left;verticalAlign=top;spacingLeft=4;spacingRight=4;overflow=hidden;rotatable=0;points=[[0,0.5],[1,0.5]];portConstraint=eastwest;whiteSpace=wrap;html=1;" parent="E4p7y--Rclgz1ynE0BcM-43" vertex="1">
          <mxGeometry y="26" width="280" height="26" as="geometry" />
        </mxCell>
        <mxCell id="E4p7y--Rclgz1ynE0BcM-45" value="&lt;font style=&quot;font-size: 10px;&quot;&gt;+ ~XORComponent()&lt;/font&gt;" style="text;strokeColor=none;fillColor=none;align=left;verticalAlign=top;spacingLeft=4;spacingRight=4;overflow=hidden;rotatable=0;points=[[0,0.5],[1,0.5]];portConstraint=eastwest;whiteSpace=wrap;html=1;" parent="E4p7y--Rclgz1ynE0BcM-43" vertex="1">
          <mxGeometry y="52" width="280" height="26" as="geometry" />
        </mxCell>
        <mxCell id="E4p7y--Rclgz1ynE0BcM-46" value="+ apply(nts::tristate inputA, nts::tristate intputB) : nts::tristate" style="text;strokeColor=none;fillColor=none;align=left;verticalAlign=top;spacingLeft=4;spacingRight=4;overflow=hidden;rotatable=0;points=[[0,0.5],[1,0.5]];portConstraint=eastwest;whiteSpace=wrap;html=1;fontSize=10;" parent="E4p7y--Rclgz1ynE0BcM-43" vertex="1">
          <mxGeometry y="78" width="280" height="26" as="geometry" />
        </mxCell>
        <mxCell id="E4p7y--Rclgz1ynE0BcM-53" style="edgeStyle=orthogonalEdgeStyle;rounded=0;orthogonalLoop=1;jettySize=auto;html=1;endArrow=none;endFill=0;" parent="1" source="E4p7y--Rclgz1ynE0BcM-49" edge="1">
          <mxGeometry relative="1" as="geometry">
            <mxPoint x="440" y="716" as="targetPoint" />
          </mxGeometry>
        </mxCell>
        <mxCell id="E4p7y--Rclgz1ynE0BcM-49" value="NOTComponent" style="swimlane;fontStyle=0;childLayout=stackLayout;horizontal=1;startSize=26;fillColor=none;horizontalStack=0;resizeParent=1;resizeParentMax=0;resizeLast=0;collapsible=1;marginBottom=0;whiteSpace=wrap;html=1;" parent="1" vertex="1">
          <mxGeometry x="120" y="776" width="280" height="104" as="geometry" />
        </mxCell>
        <mxCell id="E4p7y--Rclgz1ynE0BcM-50" value="&lt;font style=&quot;font-size: 10px;&quot;&gt;+ NOTComponent()&lt;/font&gt;" style="text;strokeColor=none;fillColor=none;align=left;verticalAlign=top;spacingLeft=4;spacingRight=4;overflow=hidden;rotatable=0;points=[[0,0.5],[1,0.5]];portConstraint=eastwest;whiteSpace=wrap;html=1;" parent="E4p7y--Rclgz1ynE0BcM-49" vertex="1">
          <mxGeometry y="26" width="280" height="26" as="geometry" />
        </mxCell>
        <mxCell id="E4p7y--Rclgz1ynE0BcM-51" value="&lt;font style=&quot;font-size: 10px;&quot;&gt;+ ~NOTComponent()&lt;/font&gt;" style="text;strokeColor=none;fillColor=none;align=left;verticalAlign=top;spacingLeft=4;spacingRight=4;overflow=hidden;rotatable=0;points=[[0,0.5],[1,0.5]];portConstraint=eastwest;whiteSpace=wrap;html=1;" parent="E4p7y--Rclgz1ynE0BcM-49" vertex="1">
          <mxGeometry y="52" width="280" height="26" as="geometry" />
        </mxCell>
        <mxCell id="E4p7y--Rclgz1ynE0BcM-52" value="+ apply(nts::tristate inputA, nts::tristate intputB) : nts::tristate" style="text;strokeColor=none;fillColor=none;align=left;verticalAlign=top;spacingLeft=4;spacingRight=4;overflow=hidden;rotatable=0;points=[[0,0.5],[1,0.5]];portConstraint=eastwest;whiteSpace=wrap;html=1;fontSize=10;" parent="E4p7y--Rclgz1ynE0BcM-49" vertex="1">
          <mxGeometry y="78" width="280" height="26" as="geometry" />
        </mxCell>
        <mxCell id="E4p7y--Rclgz1ynE0BcM-56" style="edgeStyle=orthogonalEdgeStyle;rounded=0;orthogonalLoop=1;jettySize=auto;html=1;entryX=0.494;entryY=1.014;entryDx=0;entryDy=0;entryPerimeter=0;" parent="1" source="E4p7y--Rclgz1ynE0BcM-54" target="E4p7y--Rclgz1ynE0BcM-10" edge="1">
          <mxGeometry relative="1" as="geometry">
            <mxPoint x="880" y="560" as="targetPoint" />
            <Array as="points">
              <mxPoint x="878" y="740" />
              <mxPoint x="878" y="740" />
            </Array>
          </mxGeometry>
        </mxCell>
        <mxCell id="E4p7y--Rclgz1ynE0BcM-54" value="specialComponent" style="swimlane;fontStyle=1;align=center;verticalAlign=top;childLayout=stackLayout;horizontal=1;startSize=26;horizontalStack=0;resizeParent=1;resizeParentMax=0;resizeLast=0;collapsible=1;marginBottom=0;whiteSpace=wrap;html=1;" parent="1" vertex="1">
          <mxGeometry x="777" y="734" width="190" height="52" as="geometry" />
        </mxCell>
        <mxCell id="E4p7y--Rclgz1ynE0BcM-55" value="&lt;font style=&quot;font-size: 10px;&quot;&gt;+ compute(std::size_t pin):&amp;nbsp;nts::Tristate&lt;/font&gt;" style="text;strokeColor=none;fillColor=none;align=left;verticalAlign=top;spacingLeft=4;spacingRight=4;overflow=hidden;rotatable=0;points=[[0,0.5],[1,0.5]];portConstraint=eastwest;whiteSpace=wrap;html=1;" parent="E4p7y--Rclgz1ynE0BcM-54" vertex="1">
          <mxGeometry y="26" width="190" height="26" as="geometry" />
        </mxCell>
        <mxCell id="E4p7y--Rclgz1ynE0BcM-57" value="InputComponent" style="swimlane;fontStyle=0;childLayout=stackLayout;horizontal=1;startSize=26;fillColor=none;horizontalStack=0;resizeParent=1;resizeParentMax=0;resizeLast=0;collapsible=1;marginBottom=0;whiteSpace=wrap;html=1;" parent="1" vertex="1">
          <mxGeometry x="569" y="960" width="150" height="104" as="geometry" />
        </mxCell>
        <mxCell id="E4p7y--Rclgz1ynE0BcM-58" value="&lt;font style=&quot;font-size: 10px;&quot;&gt;+ InputComponent()&lt;/font&gt;" style="text;strokeColor=none;fillColor=none;align=left;verticalAlign=top;spacingLeft=4;spacingRight=4;overflow=hidden;rotatable=0;points=[[0,0.5],[1,0.5]];portConstraint=eastwest;whiteSpace=wrap;html=1;" parent="E4p7y--Rclgz1ynE0BcM-57" vertex="1">
          <mxGeometry y="26" width="150" height="26" as="geometry" />
        </mxCell>
        <mxCell id="E4p7y--Rclgz1ynE0BcM-59" value="&lt;font style=&quot;font-size: 10px;&quot;&gt;+ ~InputComponent()&lt;/font&gt;" style="text;strokeColor=none;fillColor=none;align=left;verticalAlign=top;spacingLeft=4;spacingRight=4;overflow=hidden;rotatable=0;points=[[0,0.5],[1,0.5]];portConstraint=eastwest;whiteSpace=wrap;html=1;" parent="E4p7y--Rclgz1ynE0BcM-57" vertex="1">
          <mxGeometry y="52" width="150" height="26" as="geometry" />
        </mxCell>
        <mxCell id="E4p7y--Rclgz1ynE0BcM-60" value="+ apply() : nts::tristate" style="text;strokeColor=none;fillColor=none;align=left;verticalAlign=top;spacingLeft=4;spacingRight=4;overflow=hidden;rotatable=0;points=[[0,0.5],[1,0.5]];portConstraint=eastwest;whiteSpace=wrap;html=1;fontSize=10;" parent="E4p7y--Rclgz1ynE0BcM-57" vertex="1">
          <mxGeometry y="78" width="150" height="26" as="geometry" />
        </mxCell>
        <mxCell id="qhQhthCEYeYqS_3WAFZ2-4" style="edgeStyle=orthogonalEdgeStyle;rounded=0;orthogonalLoop=1;jettySize=auto;html=1;" edge="1" parent="1" source="E4p7y--Rclgz1ynE0BcM-65" target="E4p7y--Rclgz1ynE0BcM-54">
          <mxGeometry relative="1" as="geometry" />
        </mxCell>
        <mxCell id="E4p7y--Rclgz1ynE0BcM-65" value="OutputComponent" style="swimlane;fontStyle=0;childLayout=stackLayout;horizontal=1;startSize=26;fillColor=none;horizontalStack=0;resizeParent=1;resizeParentMax=0;resizeLast=0;collapsible=1;marginBottom=0;whiteSpace=wrap;html=1;" parent="1" vertex="1">
          <mxGeometry x="730" y="960" width="150" height="104" as="geometry" />
        </mxCell>
        <mxCell id="E4p7y--Rclgz1ynE0BcM-66" value="&lt;font style=&quot;font-size: 10px;&quot;&gt;+ OutputComponent()&lt;/font&gt;" style="text;strokeColor=none;fillColor=none;align=left;verticalAlign=top;spacingLeft=4;spacingRight=4;overflow=hidden;rotatable=0;points=[[0,0.5],[1,0.5]];portConstraint=eastwest;whiteSpace=wrap;html=1;" parent="E4p7y--Rclgz1ynE0BcM-65" vertex="1">
          <mxGeometry y="26" width="150" height="26" as="geometry" />
        </mxCell>
        <mxCell id="E4p7y--Rclgz1ynE0BcM-67" value="&lt;font style=&quot;font-size: 10px;&quot;&gt;+ ~OutputComponent()&lt;/font&gt;" style="text;strokeColor=none;fillColor=none;align=left;verticalAlign=top;spacingLeft=4;spacingRight=4;overflow=hidden;rotatable=0;points=[[0,0.5],[1,0.5]];portConstraint=eastwest;whiteSpace=wrap;html=1;" parent="E4p7y--Rclgz1ynE0BcM-65" vertex="1">
          <mxGeometry y="52" width="150" height="26" as="geometry" />
        </mxCell>
        <mxCell id="E4p7y--Rclgz1ynE0BcM-68" value="+ apply() : nts::tristate" style="text;strokeColor=none;fillColor=none;align=left;verticalAlign=top;spacingLeft=4;spacingRight=4;overflow=hidden;rotatable=0;points=[[0,0.5],[1,0.5]];portConstraint=eastwest;whiteSpace=wrap;html=1;fontSize=10;" parent="E4p7y--Rclgz1ynE0BcM-65" vertex="1">
          <mxGeometry y="78" width="150" height="26" as="geometry" />
        </mxCell>
        <mxCell id="qhQhthCEYeYqS_3WAFZ2-1" style="edgeStyle=orthogonalEdgeStyle;rounded=0;orthogonalLoop=1;jettySize=auto;html=1;" edge="1" parent="1" source="E4p7y--Rclgz1ynE0BcM-69" target="E4p7y--Rclgz1ynE0BcM-57">
          <mxGeometry relative="1" as="geometry">
            <Array as="points">
              <mxPoint x="480" y="1090" />
              <mxPoint x="644" y="1090" />
            </Array>
          </mxGeometry>
        </mxCell>
        <mxCell id="E4p7y--Rclgz1ynE0BcM-69" value="clockComponent" style="swimlane;fontStyle=0;childLayout=stackLayout;horizontal=1;startSize=26;fillColor=none;horizontalStack=0;resizeParent=1;resizeParentMax=0;resizeLast=0;collapsible=1;marginBottom=0;whiteSpace=wrap;html=1;" parent="1" vertex="1">
          <mxGeometry x="409" y="1110" width="150" height="104" as="geometry" />
        </mxCell>
        <mxCell id="E4p7y--Rclgz1ynE0BcM-70" value="&lt;font style=&quot;font-size: 10px;&quot;&gt;+ clockComponent()&lt;/font&gt;" style="text;strokeColor=none;fillColor=none;align=left;verticalAlign=top;spacingLeft=4;spacingRight=4;overflow=hidden;rotatable=0;points=[[0,0.5],[1,0.5]];portConstraint=eastwest;whiteSpace=wrap;html=1;" parent="E4p7y--Rclgz1ynE0BcM-69" vertex="1">
          <mxGeometry y="26" width="150" height="26" as="geometry" />
        </mxCell>
        <mxCell id="E4p7y--Rclgz1ynE0BcM-71" value="&lt;font style=&quot;font-size: 10px;&quot;&gt;+ ~clockComponent()&lt;/font&gt;" style="text;strokeColor=none;fillColor=none;align=left;verticalAlign=top;spacingLeft=4;spacingRight=4;overflow=hidden;rotatable=0;points=[[0,0.5],[1,0.5]];portConstraint=eastwest;whiteSpace=wrap;html=1;" parent="E4p7y--Rclgz1ynE0BcM-69" vertex="1">
          <mxGeometry y="52" width="150" height="26" as="geometry" />
        </mxCell>
        <mxCell id="E4p7y--Rclgz1ynE0BcM-72" value="+ apply() : nts::tristate" style="text;strokeColor=none;fillColor=none;align=left;verticalAlign=top;spacingLeft=4;spacingRight=4;overflow=hidden;rotatable=0;points=[[0,0.5],[1,0.5]];portConstraint=eastwest;whiteSpace=wrap;html=1;fontSize=10;" parent="E4p7y--Rclgz1ynE0BcM-69" vertex="1">
          <mxGeometry y="78" width="150" height="26" as="geometry" />
        </mxCell>
        <mxCell id="qhQhthCEYeYqS_3WAFZ2-2" style="edgeStyle=orthogonalEdgeStyle;rounded=0;orthogonalLoop=1;jettySize=auto;html=1;" edge="1" parent="1" source="E4p7y--Rclgz1ynE0BcM-73" target="E4p7y--Rclgz1ynE0BcM-57">
          <mxGeometry relative="1" as="geometry" />
        </mxCell>
        <mxCell id="E4p7y--Rclgz1ynE0BcM-73" value="trueComponent" style="swimlane;fontStyle=0;childLayout=stackLayout;horizontal=1;startSize=26;fillColor=none;horizontalStack=0;resizeParent=1;resizeParentMax=0;resizeLast=0;collapsible=1;marginBottom=0;whiteSpace=wrap;html=1;" parent="1" vertex="1">
          <mxGeometry x="569" y="1110" width="150" height="104" as="geometry" />
        </mxCell>
        <mxCell id="E4p7y--Rclgz1ynE0BcM-74" value="&lt;font style=&quot;font-size: 10px;&quot;&gt;+ trueComponent()&lt;/font&gt;" style="text;strokeColor=none;fillColor=none;align=left;verticalAlign=top;spacingLeft=4;spacingRight=4;overflow=hidden;rotatable=0;points=[[0,0.5],[1,0.5]];portConstraint=eastwest;whiteSpace=wrap;html=1;" parent="E4p7y--Rclgz1ynE0BcM-73" vertex="1">
          <mxGeometry y="26" width="150" height="26" as="geometry" />
        </mxCell>
        <mxCell id="E4p7y--Rclgz1ynE0BcM-75" value="&lt;font style=&quot;font-size: 10px;&quot;&gt;+ ~trueComponent()&lt;/font&gt;" style="text;strokeColor=none;fillColor=none;align=left;verticalAlign=top;spacingLeft=4;spacingRight=4;overflow=hidden;rotatable=0;points=[[0,0.5],[1,0.5]];portConstraint=eastwest;whiteSpace=wrap;html=1;" parent="E4p7y--Rclgz1ynE0BcM-73" vertex="1">
          <mxGeometry y="52" width="150" height="26" as="geometry" />
        </mxCell>
        <mxCell id="E4p7y--Rclgz1ynE0BcM-76" value="+ apply() : nts::tristate" style="text;strokeColor=none;fillColor=none;align=left;verticalAlign=top;spacingLeft=4;spacingRight=4;overflow=hidden;rotatable=0;points=[[0,0.5],[1,0.5]];portConstraint=eastwest;whiteSpace=wrap;html=1;fontSize=10;" parent="E4p7y--Rclgz1ynE0BcM-73" vertex="1">
          <mxGeometry y="78" width="150" height="26" as="geometry" />
        </mxCell>
        <mxCell id="qhQhthCEYeYqS_3WAFZ2-3" style="edgeStyle=orthogonalEdgeStyle;rounded=0;orthogonalLoop=1;jettySize=auto;html=1;" edge="1" parent="1" source="E4p7y--Rclgz1ynE0BcM-77" target="E4p7y--Rclgz1ynE0BcM-57">
          <mxGeometry relative="1" as="geometry">
            <Array as="points">
              <mxPoint x="800" y="1090" />
              <mxPoint x="644" y="1090" />
            </Array>
          </mxGeometry>
        </mxCell>
        <mxCell id="E4p7y--Rclgz1ynE0BcM-77" value="falseComponent" style="swimlane;fontStyle=0;childLayout=stackLayout;horizontal=1;startSize=26;fillColor=none;horizontalStack=0;resizeParent=1;resizeParentMax=0;resizeLast=0;collapsible=1;marginBottom=0;whiteSpace=wrap;html=1;" parent="1" vertex="1">
          <mxGeometry x="729" y="1110" width="150" height="104" as="geometry" />
        </mxCell>
        <mxCell id="E4p7y--Rclgz1ynE0BcM-78" value="&lt;font style=&quot;font-size: 10px;&quot;&gt;+ falseComponent()&lt;/font&gt;" style="text;strokeColor=none;fillColor=none;align=left;verticalAlign=top;spacingLeft=4;spacingRight=4;overflow=hidden;rotatable=0;points=[[0,0.5],[1,0.5]];portConstraint=eastwest;whiteSpace=wrap;html=1;" parent="E4p7y--Rclgz1ynE0BcM-77" vertex="1">
          <mxGeometry y="26" width="150" height="26" as="geometry" />
        </mxCell>
        <mxCell id="E4p7y--Rclgz1ynE0BcM-79" value="&lt;font style=&quot;font-size: 10px;&quot;&gt;+ ~falseComponent()&lt;/font&gt;" style="text;strokeColor=none;fillColor=none;align=left;verticalAlign=top;spacingLeft=4;spacingRight=4;overflow=hidden;rotatable=0;points=[[0,0.5],[1,0.5]];portConstraint=eastwest;whiteSpace=wrap;html=1;" parent="E4p7y--Rclgz1ynE0BcM-77" vertex="1">
          <mxGeometry y="52" width="150" height="26" as="geometry" />
        </mxCell>
        <mxCell id="E4p7y--Rclgz1ynE0BcM-80" value="+ apply() : nts::tristate" style="text;strokeColor=none;fillColor=none;align=left;verticalAlign=top;spacingLeft=4;spacingRight=4;overflow=hidden;rotatable=0;points=[[0,0.5],[1,0.5]];portConstraint=eastwest;whiteSpace=wrap;html=1;fontSize=10;" parent="E4p7y--Rclgz1ynE0BcM-77" vertex="1">
          <mxGeometry y="78" width="150" height="26" as="geometry" />
        </mxCell>
        <mxCell id="E4p7y--Rclgz1ynE0BcM-81" style="edgeStyle=orthogonalEdgeStyle;rounded=0;orthogonalLoop=1;jettySize=auto;html=1;entryX=0.511;entryY=0.967;entryDx=0;entryDy=0;entryPerimeter=0;" parent="1" source="E4p7y--Rclgz1ynE0BcM-57" target="E4p7y--Rclgz1ynE0BcM-55" edge="1">
          <mxGeometry relative="1" as="geometry" />
        </mxCell>
        <mxCell id="E4p7y--Rclgz1ynE0BcM-88" style="edgeStyle=orthogonalEdgeStyle;rounded=0;orthogonalLoop=1;jettySize=auto;html=1;endArrow=none;endFill=0;" parent="1" edge="1">
          <mxGeometry relative="1" as="geometry">
            <mxPoint x="876" y="646" as="targetPoint" />
            <mxPoint x="1086" y="646.0344827586207" as="sourcePoint" />
          </mxGeometry>
        </mxCell>
        <mxCell id="E4p7y--Rclgz1ynE0BcM-107" style="edgeStyle=orthogonalEdgeStyle;rounded=0;orthogonalLoop=1;jettySize=auto;html=1;" parent="1" source="E4p7y--Rclgz1ynE0BcM-86" target="E4p7y--Rclgz1ynE0BcM-93" edge="1">
          <mxGeometry relative="1" as="geometry" />
        </mxCell>
        <mxCell id="E4p7y--Rclgz1ynE0BcM-86" value="advancedComponent" style="swimlane;fontStyle=1;align=center;verticalAlign=top;childLayout=stackLayout;horizontal=1;startSize=26;horizontalStack=0;resizeParent=1;resizeParentMax=0;resizeLast=0;collapsible=1;marginBottom=0;whiteSpace=wrap;html=1;" parent="1" vertex="1">
          <mxGeometry x="1090" y="620" width="210" height="78" as="geometry" />
        </mxCell>
        <mxCell id="E4p7y--Rclgz1ynE0BcM-87" value="&lt;font style=&quot;font-size: 10px;&quot;&gt;# component:&amp;nbsp;nts::circuit&lt;/font&gt;" style="text;strokeColor=none;fillColor=none;align=left;verticalAlign=top;spacingLeft=4;spacingRight=4;overflow=hidden;rotatable=0;points=[[0,0.5],[1,0.5]];portConstraint=eastwest;whiteSpace=wrap;html=1;" parent="E4p7y--Rclgz1ynE0BcM-86" vertex="1">
          <mxGeometry y="26" width="210" height="26" as="geometry" />
        </mxCell>
        <mxCell id="E4p7y--Rclgz1ynE0BcM-89" value="&lt;font style=&quot;font-size: 10px;&quot;&gt;+ compute(std::size_t pin):&amp;nbsp;nts::Tristate&lt;/font&gt;" style="text;strokeColor=default;fillColor=none;align=left;verticalAlign=top;spacingLeft=4;spacingRight=4;overflow=hidden;rotatable=0;points=[[0,0.5],[1,0.5]];portConstraint=eastwest;whiteSpace=wrap;html=1;" parent="E4p7y--Rclgz1ynE0BcM-86" vertex="1">
          <mxGeometry y="52" width="210" height="26" as="geometry" />
        </mxCell>
        <mxCell id="E4p7y--Rclgz1ynE0BcM-102" style="edgeStyle=orthogonalEdgeStyle;rounded=0;orthogonalLoop=1;jettySize=auto;html=1;" parent="1" source="E4p7y--Rclgz1ynE0BcM-93" target="E4p7y--Rclgz1ynE0BcM-98" edge="1">
          <mxGeometry relative="1" as="geometry" />
        </mxCell>
        <mxCell id="E4p7y--Rclgz1ynE0BcM-105" style="edgeStyle=orthogonalEdgeStyle;rounded=0;orthogonalLoop=1;jettySize=auto;html=1;" parent="1" source="E4p7y--Rclgz1ynE0BcM-93" target="E4p7y--Rclgz1ynE0BcM-103" edge="1">
          <mxGeometry relative="1" as="geometry" />
        </mxCell>
        <mxCell id="E4p7y--Rclgz1ynE0BcM-93" value="circuit" style="swimlane;fontStyle=1;align=center;verticalAlign=top;childLayout=stackLayout;horizontal=1;startSize=26;horizontalStack=0;resizeParent=1;resizeParentMax=0;resizeLast=0;collapsible=1;marginBottom=0;whiteSpace=wrap;html=1;" parent="1" vertex="1">
          <mxGeometry x="1275" y="310" width="360" height="130" as="geometry" />
        </mxCell>
        <mxCell id="E4p7y--Rclgz1ynE0BcM-94" value="&lt;font style=&quot;font-size: 10px;&quot;&gt;# _input: std::map&amp;lt;std::size_t, std::pair&amp;lt;nts::IComponent *, std::size_t&amp;gt;&amp;gt;&lt;br&gt;# _output: std::map&amp;lt;std::size_t, std::pair&amp;lt;nts::IComponent *, std::size_t&amp;gt;&amp;gt;&lt;br&gt;# _tick: size_t&lt;br&gt;&lt;/font&gt;" style="text;strokeColor=none;fillColor=none;align=left;verticalAlign=top;spacingLeft=4;spacingRight=4;overflow=hidden;rotatable=0;points=[[0,0.5],[1,0.5]];portConstraint=eastwest;whiteSpace=wrap;html=1;" parent="E4p7y--Rclgz1ynE0BcM-93" vertex="1">
          <mxGeometry y="26" width="360" height="54" as="geometry" />
        </mxCell>
        <mxCell id="E4p7y--Rclgz1ynE0BcM-95" value="&lt;font style=&quot;font-size: 10px;&quot;&gt;+ circuit(std::string file)&lt;br&gt;+ ~circuit()&lt;br&gt;+ std::string&amp;amp; operator=(std::string&amp;amp;)&lt;br&gt;&lt;/font&gt;" style="text;strokeColor=default;fillColor=none;align=left;verticalAlign=top;spacingLeft=4;spacingRight=4;overflow=hidden;rotatable=0;points=[[0,0.5],[1,0.5]];portConstraint=eastwest;whiteSpace=wrap;html=1;" parent="E4p7y--Rclgz1ynE0BcM-93" vertex="1">
          <mxGeometry y="80" width="360" height="50" as="geometry" />
        </mxCell>
        <mxCell id="E4p7y--Rclgz1ynE0BcM-98" value="&lt;i&gt;parser&lt;/i&gt;" style="swimlane;fontStyle=1;align=center;verticalAlign=top;childLayout=stackLayout;horizontal=1;startSize=26;horizontalStack=0;resizeParent=1;resizeParentMax=0;resizeLast=0;collapsible=1;marginBottom=0;whiteSpace=wrap;html=1;" parent="1" vertex="1">
          <mxGeometry x="1145" y="60" width="130" height="76" as="geometry" />
        </mxCell>
        <mxCell id="E4p7y--Rclgz1ynE0BcM-100" value="&lt;font style=&quot;font-size: 10px;&quot;&gt;open(std::string): FILE *&lt;br&gt;parse(FILE* file): circuit *&lt;br&gt;&lt;/font&gt;" style="text;strokeColor=default;fillColor=none;align=left;verticalAlign=top;spacingLeft=4;spacingRight=4;overflow=hidden;rotatable=0;points=[[0,0.5],[1,0.5]];portConstraint=eastwest;whiteSpace=wrap;html=1;" parent="E4p7y--Rclgz1ynE0BcM-98" vertex="1">
          <mxGeometry y="26" width="130" height="50" as="geometry" />
        </mxCell>
        <mxCell id="E4p7y--Rclgz1ynE0BcM-103" value="&lt;i&gt;interpreter&lt;/i&gt;" style="swimlane;fontStyle=1;align=center;verticalAlign=top;childLayout=stackLayout;horizontal=1;startSize=26;horizontalStack=0;resizeParent=1;resizeParentMax=0;resizeLast=0;collapsible=1;marginBottom=0;whiteSpace=wrap;html=1;" parent="1" vertex="1">
          <mxGeometry x="1390" y="50" width="130" height="110" as="geometry" />
        </mxCell>
        <mxCell id="E4p7y--Rclgz1ynE0BcM-104" value="&lt;font style=&quot;font-size: 10px;&quot;&gt;exit(): void&lt;br&gt;display(): void&lt;br&gt;simulate(): void&lt;br&gt;loop(): void&lt;br&gt;&lt;/font&gt;" style="text;strokeColor=default;fillColor=none;align=left;verticalAlign=top;spacingLeft=4;spacingRight=4;overflow=hidden;rotatable=0;points=[[0,0.5],[1,0.5]];portConstraint=eastwest;whiteSpace=wrap;html=1;" parent="E4p7y--Rclgz1ynE0BcM-103" vertex="1">
          <mxGeometry y="26" width="130" height="84" as="geometry" />
        </mxCell>
      </root>
    </mxGraphModel>
  </diagram>
</mxfile>
